<svg width="161" height="29" viewBox="0 0 161 29" fill="none" xmlns="http://www.w3.org/2000/svg">
<path d="M74.1291 7.81729C74.9785 7.81729 75.725 7.9468 76.317 8.20584C76.909 8.46487 77.3981 8.77571 77.7842 9.19016C78.1702 9.60461 78.4276 10.0709 78.6078 10.5889C78.788 11.107 78.8652 11.651 78.8652 12.2208C78.8652 12.7648 78.788 13.3088 78.6078 13.8527C78.4276 14.3967 78.1702 14.863 77.7842 15.2774C77.3981 15.6919 76.909 16.0286 76.317 16.2617C75.725 16.5208 74.9785 16.6503 74.1291 16.6503H70.9632V21.5978H67.9517V7.81729H74.1291ZM73.3055 14.2931C73.6401 14.2931 73.9747 14.2672 74.3093 14.2154C74.6182 14.1636 74.9013 14.06 75.1587 13.9046C75.3904 13.7491 75.5963 13.5419 75.7507 13.2829C75.9052 13.0238 75.9824 12.6612 75.9824 12.2208C75.9824 11.7805 75.9052 11.4437 75.7507 11.1588C75.5963 10.8998 75.4161 10.6666 75.1587 10.5371C74.9271 10.3817 74.6439 10.304 74.3093 10.2263C74.0004 10.1745 73.6658 10.1486 73.3055 10.1486H70.9632V14.2672H73.3055V14.2931Z" fill="white"/>
<path d="M87.6957 7.81729C88.5451 7.81729 89.2915 7.9468 89.8836 8.20584C90.4756 8.46487 90.9646 8.77571 91.3507 9.19016C91.7368 9.60461 91.9942 10.0709 92.1744 10.5889C92.3546 11.107 92.4318 11.651 92.4318 12.2208C92.4318 12.7648 92.3546 13.3088 92.1744 13.8527C91.9942 14.3967 91.7368 14.863 91.3507 15.2774C90.9646 15.6919 90.5013 16.0286 89.8836 16.2618C89.2915 16.5208 88.5451 16.6503 87.6957 16.6503H84.5297V21.5719H81.5182V7.81729H87.6957ZM86.872 14.2931C87.2066 14.2931 87.5413 14.2672 87.8759 14.2154C88.1847 14.1636 88.4679 14.06 88.7253 13.9046C88.9569 13.7491 89.1628 13.5419 89.3173 13.2829C89.4717 13.0238 89.5489 12.6612 89.5489 12.2208C89.5489 11.7805 89.4717 11.4178 89.3173 11.1588C89.1628 10.8998 88.9827 10.6666 88.7253 10.5371C88.4936 10.3817 88.2105 10.304 87.8759 10.2263C87.567 10.1745 87.2324 10.1486 86.872 10.1486H84.5297V14.2672H86.872V14.2931Z" fill="white"/>
<path d="M93.5873 7.81729H96.9592L100.151 13.257L103.343 7.81729H106.689L101.618 16.2877V21.5719H98.6065V16.2099L93.5873 7.81729Z" fill="white"/>
<path d="M111.608 7.81729V19.0334H118.274V21.5719H108.596V7.81729H111.608Z" fill="white"/>
<path d="M130.96 7.81729V10.3558H123.728V13.3088H130.368V15.666H123.728V19.0334H131.115V21.5719H120.716V7.81729H130.96Z" fill="white"/>
<path d="M136.882 7.81729L142.597 17.0388H142.648V7.81729H145.454V21.5719H142.442L136.754 12.3504H136.728V21.5719H133.897V7.81729H136.882Z" fill="white"/>
<path d="M154.771 7.81729C155.646 7.81729 156.47 7.9468 157.242 8.23174C158.014 8.51668 158.658 8.93113 159.224 9.501C159.79 10.0709 160.202 10.7703 160.537 11.6251C160.846 12.4799 161 13.4642 161 14.6039C161 15.6142 160.871 16.5208 160.614 17.3756C160.357 18.2304 159.971 18.9557 159.456 19.5774C158.941 20.1991 158.298 20.6912 157.525 21.028C156.753 21.3906 155.852 21.546 154.797 21.546H148.903V7.81729H154.771ZM154.565 19.0334C155.003 19.0334 155.415 18.9557 155.827 18.8262C156.238 18.6967 156.599 18.4635 156.908 18.1268C157.216 17.79 157.474 17.3756 157.68 16.8316C157.86 16.3136 157.963 15.666 157.963 14.9148C157.963 14.2154 157.886 13.5937 157.757 13.0238C157.628 12.454 157.397 11.9877 157.088 11.5992C156.779 11.2106 156.367 10.8998 155.878 10.6926C155.389 10.4853 154.745 10.3817 153.999 10.3817H151.863V19.0593H154.565V19.0334Z" fill="white"/>
<path d="M25.6094 21.1315C25.6094 21.5718 25.6094 22.0381 25.6094 22.5043C25.6094 22.6856 25.6094 22.867 25.6094 23.0742V23.6441V24.9392C25.6094 25.8718 25.3263 26.6229 24.76 27.2705C24.0136 28.1253 23.0612 28.5139 21.9287 28.4103C20.4358 28.2808 19.226 27.141 18.9429 25.6127C18.9172 25.4573 18.8914 25.3019 18.8914 25.1465C18.8914 23.8513 18.8914 22.4525 18.8914 21.0796C18.8914 19.6809 19.7666 18.4116 21.0793 17.9454C21.4654 17.8158 21.8515 17.7381 22.2376 17.7381C22.8296 17.7381 23.4216 17.8935 23.9364 18.2044C24.7343 18.6965 25.3005 19.4736 25.5065 20.4062C25.5837 20.6134 25.6094 20.8724 25.6094 21.1315Z" fill="white"/>
<path d="M25.5325 4.13877C25.5582 4.29419 25.5582 4.44961 25.5582 4.57913C25.5582 6.31465 24.3227 7.81704 22.5982 8.12787C20.6162 8.46462 18.763 7.14355 18.4541 5.149C18.1452 3.23216 19.4065 1.41893 21.2855 1.05629C21.3884 1.03038 21.4914 1.03038 21.5943 1.00448L21.7488 0.978577H22.2121L22.3665 1.00448C22.4952 1.03038 22.5982 1.03038 22.7269 1.05629C24.2198 1.36713 25.3523 2.61048 25.5325 4.13877Z" fill="white"/>
<path d="M25.5331 11.5733C25.6618 12.3504 25.4044 13.0239 24.7866 13.5937C23.3967 14.8371 21.9553 15.8473 20.3852 16.6244C18.8408 17.3756 17.2192 17.8937 15.5462 18.1268C14.0533 18.334 12.5089 18.334 10.9645 18.1268C8.51927 17.7901 6.20271 16.9871 3.86042 15.6401C2.75362 14.9925 1.80126 14.3449 0.977594 13.6196C0.514284 13.2311 0.256889 12.7648 0.17967 12.195C0.17967 12.1691 0.17967 12.1432 0.153931 12.1432V11.6769V11.6251C0.17967 11.5733 0.17967 11.4956 0.20541 11.4438C0.462805 10.5113 1.08055 9.91548 2.08439 9.65644C3.11397 9.37151 4.01486 9.55283 4.81278 10.2004C6.38289 11.4697 8.10744 12.4281 9.96068 12.998C11.1704 13.3606 12.3802 13.5419 13.5642 13.516C14.7482 13.4642 15.9065 13.2311 17.039 12.7389C18.1973 12.2727 19.2784 11.5992 20.3594 10.6667C20.4367 10.589 20.5139 10.5372 20.6168 10.4594C20.797 10.304 20.9514 10.1745 21.1316 10.045C21.9295 9.50102 22.9849 9.37151 23.9372 9.73415C24.7866 10.045 25.4044 10.7444 25.5331 11.5733Z" fill="white"/>
<path d="M7.20807 4.1917C7.23381 4.34712 7.23381 4.50254 7.23381 4.63206C7.23381 6.36758 5.99831 7.86997 4.27377 8.18081C2.29182 8.54345 0.438578 7.22238 0.129704 5.22783C-0.17917 3.31099 1.05633 1.49776 2.96105 1.10921C3.06401 1.08331 3.16697 1.08331 3.26993 1.05741L3.39862 1.0315H3.86193L4.01637 1.05741C4.14507 1.08331 4.24803 1.08331 4.37672 1.10921C5.89536 1.44595 7.02789 2.66341 7.20807 4.1917Z" fill="white"/>
<path d="M6.71801 21.1315C6.71801 21.5718 6.71801 22.0381 6.71801 22.5043V23.0742V23.6441C6.71801 24.0585 6.71801 24.4989 6.71801 24.9392C6.71801 25.8718 6.43488 26.6229 5.86861 27.2705C5.09642 28.1253 4.14406 28.5139 3.03726 28.4103C1.54437 28.2549 0.334614 27.141 0.051479 25.6127C0.0257395 25.4314 0 25.3019 0 25.1465C0 23.8513 0 22.4525 0 21.0796C0 19.6809 0.900882 18.4116 2.18786 17.9454C2.57395 17.8158 2.96004 17.7381 3.34613 17.7381C3.93814 17.7381 4.53015 17.8935 5.04494 18.2044C5.84287 18.6965 6.40914 19.4736 6.61505 20.4062C6.69227 20.6134 6.71801 20.8465 6.71801 21.1315Z" fill="white"/>
<path d="M42.1357 7.81756V13.1018H47.6697V7.81756H50.6812V21.5722H47.6697V15.6403H42.1357V21.5722H39.1241V7.81756H42.1357Z" fill="white"/>
<path d="M60.8994 7.81756L66.0215 21.5722H62.907L61.8774 18.5156H56.7553L55.6742 21.5722H52.637L57.8106 7.81756H60.8994ZM61.0795 16.262L59.355 11.2109H59.3035L57.5275 16.262H61.0795Z" fill="white"/>
</svg>
