<svg width="201" height="36" viewBox="0 0 201 36" fill="none" xmlns="http://www.w3.org/2000/svg">
<path d="M92.0855 9.49365C93.1406 9.49365 94.0679 9.6555 94.8033 9.97921C95.5387 10.3029 96.1462 10.6914 96.6259 11.2093C97.1055 11.7272 97.4252 12.3099 97.649 12.9573C97.8729 13.6047 97.9688 14.2845 97.9688 14.9966C97.9688 15.6764 97.8729 16.3562 97.649 17.036C97.4252 17.7157 97.1055 18.2984 96.6259 18.8163C96.1462 19.3343 95.5387 19.7551 94.8033 20.0464C94.0679 20.3701 93.1406 20.532 92.0855 20.532H88.1526V26.7147H84.4116V9.49365H92.0855ZM91.0623 17.5863C91.478 17.5863 91.8936 17.5539 92.3093 17.4891C92.693 17.4244 93.0447 17.2949 93.3645 17.1007C93.6522 16.9065 93.908 16.6475 94.0999 16.3238C94.2917 16.0001 94.3877 15.5469 94.3877 14.9966C94.3877 14.4463 94.2917 14.0255 94.0999 13.6694C93.908 13.3457 93.6842 13.0544 93.3645 12.8925C93.0767 12.6983 92.725 12.6012 92.3093 12.5041C91.9256 12.4394 91.5099 12.407 91.0623 12.407H88.1526V17.5539H91.0623V17.5863Z" fill="#6B6A69"/>
<path d="M108.936 9.49414C109.991 9.49414 110.919 9.65599 111.654 9.9797C112.389 10.3034 112.997 10.6918 113.476 11.2098C113.956 11.7277 114.276 12.3104 114.5 12.9578C114.723 13.6052 114.819 14.285 114.819 14.9971C114.819 15.6769 114.723 16.3567 114.5 17.0364C114.276 17.7162 113.956 18.2989 113.476 18.8168C112.997 19.3347 112.421 19.7556 111.654 20.0469C110.919 20.3706 109.991 20.5325 108.936 20.5325H105.003V26.6828H101.262V9.49414H108.936ZM107.913 17.5867C108.329 17.5867 108.744 17.5544 109.16 17.4896C109.544 17.4249 109.895 17.2954 110.215 17.1012C110.503 16.907 110.759 16.648 110.95 16.3243C111.142 16.0006 111.238 15.5474 111.238 14.9971C111.238 14.4468 111.142 13.9936 110.95 13.6699C110.759 13.3462 110.535 13.0549 110.215 12.893C109.927 12.6988 109.576 12.6017 109.16 12.5046C108.776 12.4398 108.361 12.4075 107.913 12.4075H105.003V17.5544H107.913V17.5867Z" fill="#6B6A69"/>
<path d="M116.26 9.49365H120.448L124.413 16.2914L128.378 9.49365H132.535L126.236 20.0788V26.6823H122.495V19.9817L116.26 9.49365Z" fill="#6B6A69"/>
<path d="M138.643 9.49414V23.5105H146.925V26.6828H134.902V9.49414H138.643Z" fill="#6B6A69"/>
<path d="M162.684 9.49365V12.666H153.7V16.3562H161.949V19.3019H153.7V23.51H162.876V26.6823H149.958V9.49365H162.684Z" fill="#6B6A69"/>
<path d="M170.04 9.49365L177.138 21.0175H177.202V9.49365H180.687V26.6823H176.946L169.88 15.1585H169.848V26.6823H166.331V9.49365H170.04Z" fill="#6B6A69"/>
<path d="M192.263 9.49414C193.35 9.49414 194.374 9.65599 195.333 10.0121C196.292 10.3681 197.091 10.8861 197.795 11.5982C198.498 12.3104 199.01 13.1844 199.426 14.2526C199.809 15.3208 200.001 16.5509 200.001 17.9752C200.001 19.2376 199.841 20.3706 199.522 21.4388C199.202 22.507 198.722 23.4134 198.083 24.1903C197.443 24.9672 196.644 25.5822 195.685 26.0031C194.725 26.4562 193.606 26.6505 192.295 26.6505H184.973V9.49414H192.263ZM192.008 23.5105C192.551 23.5105 193.063 23.4134 193.574 23.2516C194.086 23.0897 194.534 22.7984 194.917 22.3776C195.301 21.9567 195.621 21.4388 195.876 20.759C196.1 20.1116 196.228 19.3024 196.228 18.3636C196.228 17.4896 196.132 16.7127 195.972 16.0006C195.813 15.2884 195.525 14.7058 195.141 14.2202C194.757 13.7347 194.246 13.3462 193.638 13.0873C193.031 12.8283 192.231 12.6988 191.304 12.6988H188.65V23.5429H192.008V23.5105Z" fill="#6B6A69"/>
<path d="M31.8146 26.1336C31.8146 26.6839 31.8146 27.2666 31.8146 27.8492C31.8146 28.0758 31.8146 28.3024 31.8146 28.5614V29.2735V30.892C31.8146 32.0574 31.4628 32.9961 30.7594 33.8054C29.8321 34.8736 28.6491 35.3592 27.2422 35.2297C25.3877 35.0678 23.8849 33.6435 23.5332 31.7337C23.5012 31.5395 23.4692 31.3452 23.4692 31.151C23.4692 29.5325 23.4692 27.7845 23.4692 26.0689C23.4692 24.3208 24.5564 22.7347 26.1871 22.152C26.6667 21.9902 27.1463 21.8931 27.6259 21.8931C28.3613 21.8931 29.0967 22.0873 29.7362 22.4757C30.7274 23.0908 31.4309 24.0619 31.6867 25.2272C31.7826 25.4862 31.8146 25.8099 31.8146 26.1336Z" fill="#6B6A69"/>
<path d="M31.717 4.89743C31.7489 5.09165 31.749 5.28588 31.749 5.44773C31.749 7.61655 30.2142 9.49403 28.0719 9.88248C25.6099 10.3033 23.3077 8.6524 22.924 6.15988C22.5403 3.76447 24.1071 1.49854 26.4412 1.04535C26.5691 1.01298 26.697 1.01298 26.8249 0.980613L27.0167 0.948242H27.5923L27.7841 0.980613C27.944 1.01298 28.0719 1.01298 28.2318 1.04535C30.0863 1.4338 31.4932 2.98758 31.717 4.89743Z" fill="#6B6A69"/>
<path d="M31.7197 14.188C31.8796 15.1591 31.5598 16.0008 30.7924 16.7129C29.0658 18.2667 27.2752 19.5291 25.3248 20.5002C23.4063 21.439 21.3919 22.0864 19.3136 22.3777C17.4591 22.6367 15.5406 22.6367 13.6221 22.3777C10.5846 21.9569 7.70687 20.9534 4.79719 19.2702C3.42229 18.4609 2.23924 17.6516 1.21605 16.7453C0.640514 16.2597 0.320769 15.677 0.224846 14.9649C0.224846 14.9325 0.224846 14.9002 0.192871 14.9002V14.3175V14.2527C0.224846 14.188 0.224846 14.0909 0.25682 14.0262C0.576565 12.8608 1.34395 12.1163 2.59096 11.7926C3.86994 11.4365 4.98904 11.6631 5.98025 12.4724C7.93069 14.0585 10.073 15.2562 12.3751 15.9684C13.8779 16.4216 15.3807 16.6482 16.8516 16.6158C18.3224 16.551 19.7612 16.2597 21.1681 15.6447C22.607 15.062 23.9499 14.2204 25.2928 13.055C25.3888 12.9579 25.4847 12.8932 25.6126 12.7961C25.8364 12.6019 26.0282 12.44 26.2521 12.2782C27.2433 11.5984 28.5542 11.4365 29.7373 11.8897C30.7924 12.2782 31.5598 13.1522 31.7197 14.188Z" fill="#6B6A69"/>
<path d="M8.9542 4.96189C8.98618 5.15611 8.98618 5.35033 8.98618 5.51218C8.98618 7.681 7.4514 9.55848 5.30912 9.94693C2.84708 10.4001 0.544923 8.74922 0.161229 6.2567C-0.222464 3.86129 1.31231 1.59536 3.67842 1.10981C3.80632 1.07744 3.93421 1.07744 4.06211 1.04507L4.22198 1.0127H4.79752L4.98937 1.04507C5.14924 1.07744 5.27714 1.07744 5.43701 1.10981C7.32351 1.53062 8.73038 3.05203 8.9542 4.96189Z" fill="#6B6A69"/>
<path d="M8.34534 26.1336C8.34534 26.6839 8.34534 27.2666 8.34534 27.8492V28.5614V29.2735C8.34534 29.7915 8.34534 30.3418 8.34534 30.892C8.34534 32.0574 7.99362 32.9961 7.29018 33.8054C6.33094 34.8736 5.14789 35.3592 3.77299 35.2297C1.91847 35.0355 0.415668 33.6435 0.0639489 31.7337C0.0319745 31.5071 0 31.3452 0 31.151C0 29.5325 0 27.7845 0 26.0689C0 24.3208 1.11911 22.7347 2.71783 22.152C3.19745 21.9902 3.67706 21.8931 4.15668 21.8931C4.89209 21.8931 5.62751 22.0873 6.26699 22.4757C7.2582 23.0908 7.96164 24.0619 8.21744 25.2272C8.31336 25.4862 8.34534 25.7775 8.34534 26.1336Z" fill="#6B6A69"/>
<path d="M52.3421 9.49414V16.0977H59.2166V9.49414H62.9576V26.6828H59.2166V19.27H52.3421V26.6828H48.6011V9.49414H52.3421Z" fill="#6B6A69"/>
<path d="M75.652 9.49414L82.0149 26.6828H78.146L76.867 22.8631H70.5041L69.1612 26.6828H65.3882L71.8151 9.49414H75.652ZM75.8758 20.0469L73.7335 13.7347H73.6696L71.4633 20.0469H75.8758Z" fill="#6B6A69"/>
</svg>
