<svg width="100" height="18" viewBox="0 0 100 18" fill="none" xmlns="http://www.w3.org/2000/svg">
<path d="M46.0425 4.5105C46.5701 4.5105 47.0337 4.59094 47.4014 4.75183C47.7691 4.91272 48.0729 5.10579 48.3127 5.36321C48.5525 5.62063 48.7123 5.91023 48.8243 6.23201C48.9362 6.55378 48.9841 6.89165 48.9841 7.24561C48.9841 7.58347 48.9362 7.92134 48.8243 8.2592C48.7123 8.59707 48.5525 8.88667 48.3127 9.14409C48.0729 9.40151 47.7691 9.61067 47.4014 9.75547C47.0337 9.91636 46.5701 9.9968 46.0425 9.9968H44.0761V13.0698H42.2056V4.5105H46.0425ZM45.5309 8.53272C45.7387 8.53272 45.9466 8.51663 46.1544 8.48445C46.3462 8.45227 46.5221 8.38792 46.682 8.29138C46.8259 8.19485 46.9538 8.06614 47.0497 7.90525C47.1456 7.74436 47.1936 7.51912 47.1936 7.24561C47.1936 6.9721 47.1456 6.76294 47.0497 6.58596C46.9538 6.42507 46.8418 6.28027 46.682 6.19983C46.5381 6.1033 46.3622 6.05503 46.1544 6.00676C45.9626 5.97459 45.7547 5.9585 45.5309 5.9585H44.0761V8.51663H45.5309V8.53272Z" fill="black"/>
<path d="M54.4683 4.5105C54.9959 4.5105 55.4595 4.59094 55.8272 4.75183C56.1949 4.91272 56.4987 5.10579 56.7385 5.36321C56.9783 5.62063 57.1381 5.91023 57.2501 6.23201C57.362 6.55379 57.4099 6.89165 57.4099 7.24561C57.4099 7.58347 57.362 7.92134 57.2501 8.25921C57.1381 8.59707 56.9783 8.88667 56.7385 9.14409C56.4987 9.40152 56.2109 9.61067 55.8272 9.75547C55.4595 9.91636 54.9959 9.9968 54.4683 9.9968H52.5018V13.0537H50.6313V4.5105H54.4683ZM53.9567 8.53272C54.1645 8.53272 54.3724 8.51663 54.5802 8.48445C54.772 8.45227 54.9479 8.38792 55.1078 8.29138C55.2517 8.19485 55.3796 8.06614 55.4755 7.90525C55.5714 7.74436 55.6194 7.51912 55.6194 7.24561C55.6194 6.9721 55.5714 6.74685 55.4755 6.58596C55.3796 6.42507 55.2676 6.28027 55.1078 6.19983C54.9639 6.1033 54.788 6.05503 54.5802 6.00676C54.3883 5.97459 54.1805 5.9585 53.9567 5.9585H52.5018V8.51663H53.9567V8.53272Z" fill="black"/>
<path d="M58.1287 4.5105H60.223L62.2054 7.88916L64.1878 4.5105H66.2661L63.1167 9.77156V13.0537H61.2462V9.72329L58.1287 4.5105Z" fill="black"/>
<path d="M69.3212 4.5105V11.477H73.4619V13.0537H67.4507V4.5105H69.3212Z" fill="black"/>
<path d="M81.3409 4.5105V6.08721H76.8485V7.92134H80.9732V9.38543H76.8485V11.477H81.4368V13.0537H74.978V4.5105H81.3409Z" fill="black"/>
<path d="M85.0195 4.5105L88.5687 10.2381H88.6007V4.5105H90.3433V13.0537H88.4728L84.9396 7.32605H84.9236V13.0537H83.165V4.5105H85.0195Z" fill="black"/>
<path d="M96.1312 4.5105C96.6747 4.5105 97.1863 4.59094 97.6659 4.76792C98.1455 4.9449 98.5452 5.20232 98.8969 5.55628C99.2487 5.91023 99.5045 6.34463 99.7123 6.87556C99.9041 7.4065 100 8.01787 100 8.72579C100 9.35325 99.9201 9.91636 99.7603 10.4473C99.6004 10.9782 99.3606 11.4287 99.0408 11.8149C98.7211 12.201 98.3214 12.5067 97.8418 12.7158C97.3622 12.9411 96.8026 13.0376 96.1472 13.0376H92.4861V4.5105H96.1312ZM96.0033 11.477C96.275 11.477 96.5308 11.4287 96.7866 11.3483C97.0424 11.2678 97.2662 11.123 97.4581 10.9139C97.6499 10.7047 97.8098 10.4473 97.9377 10.1094C98.0496 9.78765 98.1136 9.38543 98.1136 8.91885C98.1136 8.48445 98.0656 8.09832 97.9857 7.74436C97.9057 7.39041 97.7619 7.10081 97.57 6.85948C97.3782 6.61814 97.1224 6.42508 96.8186 6.29636C96.5148 6.16765 96.1152 6.1033 95.6515 6.1033H94.3246V11.4931H96.0033V11.477Z" fill="black"/>
<path d="M15.9063 12.78C15.9063 13.0535 15.9063 13.3431 15.9063 13.6327C15.9063 13.7453 15.9063 13.858 15.9063 13.9867V14.3406V15.1451C15.9063 15.7243 15.7304 16.1908 15.3787 16.5931C14.9151 17.124 14.3236 17.3653 13.6201 17.301C12.6929 17.2205 11.9415 16.5126 11.7656 15.5634C11.7496 15.4668 11.7336 15.3703 11.7336 15.2738C11.7336 14.4693 11.7336 13.6005 11.7336 12.7478C11.7336 11.879 12.2772 11.0907 13.0925 10.8011C13.3324 10.7206 13.5722 10.6724 13.812 10.6724C14.1797 10.6724 14.5474 10.7689 14.8671 10.962C15.3627 11.2677 15.7144 11.7503 15.8423 12.3295C15.8903 12.4582 15.9063 12.6191 15.9063 12.78Z" fill="black"/>
<path d="M15.8582 2.22505C15.8742 2.32158 15.8742 2.41812 15.8742 2.49856C15.8742 3.57652 15.1068 4.50967 14.0357 4.70274C12.8047 4.91189 11.6536 4.09136 11.4618 2.85252C11.2699 1.66194 12.0533 0.535718 13.2203 0.310474C13.2843 0.294385 13.3482 0.294385 13.4122 0.278296L13.5081 0.262207H13.7959L13.8918 0.278296C13.9717 0.294385 14.0357 0.294385 14.1156 0.310474C15.0429 0.50354 15.7463 1.27581 15.8582 2.22505Z" fill="black"/>
<path d="M15.8586 6.84201C15.9385 7.32467 15.7786 7.74298 15.3949 8.09694C14.5316 8.86921 13.6363 9.49667 12.6611 9.97934C11.7019 10.4459 10.6947 10.7677 9.65554 10.9125C8.72829 11.0412 7.76905 11.0412 6.80982 10.9125C5.29104 10.7033 3.8522 10.2046 2.39737 9.36796C1.70992 8.96574 1.11839 8.56352 0.606804 8.11303C0.319035 7.87169 0.159164 7.58209 0.111202 7.22814C0.111202 7.21205 0.111202 7.19596 0.0952148 7.19596V6.90636V6.87418C0.111202 6.84201 0.111202 6.79374 0.127189 6.76156C0.287061 6.18236 0.670753 5.81232 1.29425 5.65143C1.93374 5.47445 2.49329 5.58707 2.98889 5.98929C3.96411 6.77765 5.03525 7.37294 6.18633 7.72689C6.93772 7.95214 7.68912 8.06476 8.42453 8.04867C9.15994 8.01649 9.87936 7.87169 10.5828 7.56601C11.3022 7.27641 11.9737 6.85809 12.6451 6.27889C12.6931 6.23063 12.7411 6.19845 12.805 6.15018C12.9169 6.05365 13.0128 5.97321 13.1248 5.89276C13.6204 5.55489 14.2758 5.47445 14.8674 5.69969C15.3949 5.89276 15.7786 6.32716 15.8586 6.84201Z" fill="black"/>
<path d="M4.48026 2.2607C4.49625 2.35723 4.49625 2.45376 4.49625 2.53421C4.49625 3.61216 3.72886 4.54532 2.65772 4.73838C1.42671 4.96363 0.275634 4.1431 0.0837883 2.90425C-0.108058 1.71367 0.659327 0.587452 1.84238 0.346118C1.90633 0.330029 1.97027 0.330029 2.03422 0.31394L2.11416 0.297852H2.40193L2.49785 0.31394C2.57779 0.330029 2.64174 0.330029 2.72167 0.346118C3.66491 0.555274 4.36835 1.31145 4.48026 2.2607Z" fill="black"/>
<path d="M4.17265 12.78C4.17265 13.0535 4.17265 13.3431 4.17265 13.6327V13.9867V14.3406C4.17265 14.598 4.17265 14.8716 4.17265 15.1451C4.17265 15.7243 3.99679 16.1908 3.64507 16.5931C3.16546 17.124 2.57393 17.3653 1.88648 17.301C0.959229 17.2044 0.207833 16.5126 0.0319743 15.5634C0.0159872 15.4508 0 15.3703 0 15.2738C0 14.4693 0 13.6005 0 12.7478C0 11.879 0.559551 11.0907 1.35891 10.8011C1.59872 10.7206 1.83852 10.6724 2.07833 10.6724C2.44604 10.6724 2.81374 10.7689 3.13348 10.962C3.62908 11.2677 3.9808 11.7503 4.1087 12.3295C4.15666 12.4582 4.17265 12.603 4.17265 12.78Z" fill="black"/>
<path d="M26.171 4.5105V7.79263H29.6083V4.5105H31.4788V13.0537H29.6083V9.36934H26.171V13.0537H24.3005V4.5105H26.171Z" fill="black"/>
<path d="M37.8257 4.5105L41.0072 13.0537H39.0727L38.4332 11.1552H35.2518L34.5803 13.0537H32.6938L35.9073 4.5105H37.8257ZM37.9376 9.75547L36.8665 6.61814H36.8345L35.7314 9.75547H37.9376Z" fill="black"/>
</svg>
