<svg width="38" height="38" viewBox="0 0 38 38" fill="none" xmlns="http://www.w3.org/2000/svg">
<g clip-path="url(#clip0)">
<path d="M18.7496 15.2712C16.6941 15.2712 15.0204 16.9441 15.0204 18.9996C15.0204 21.0559 16.6941 22.7296 18.7496 22.7296C20.8059 22.7296 22.4788 21.0559 22.4788 18.9996C22.4788 16.9441 20.8059 15.2712 18.7496 15.2712ZM18.7496 15.2712C16.6941 15.2712 15.0204 16.9441 15.0204 18.9996C15.0204 21.0559 16.6941 22.7296 18.7496 22.7296C20.8059 22.7296 22.4788 21.0559 22.4788 18.9996C22.4788 16.9441 20.8059 15.2712 18.7496 15.2712ZM24.9621 9.19115H12.5379C10.5548 9.19115 8.94115 10.8048 8.94115 12.7879V25.2121C8.94115 27.1952 10.5548 28.8088 12.5379 28.8088H24.9621C26.9452 28.8088 28.5588 27.1952 28.5588 25.2121V12.7879C28.5588 10.8048 26.9452 9.19115 24.9621 9.19115ZM18.7496 25.4582C15.1891 25.4582 12.2918 22.5609 12.2918 18.9996C12.2918 15.4391 15.1891 12.5418 18.7496 12.5418C22.3109 12.5418 25.2082 15.4391 25.2082 18.9996C25.2082 22.5609 22.3109 25.4582 18.7496 25.4582ZM25.4155 13.8773C24.5729 13.8773 23.8875 13.1919 23.8875 12.3493C23.8875 11.5067 24.5729 10.8212 25.4155 10.8212C26.2581 10.8212 26.9436 11.5067 26.9436 12.3493C26.9436 13.1919 26.2581 13.8773 25.4155 13.8773ZM18.7496 15.2712C16.6941 15.2712 15.0204 16.9441 15.0204 18.9996C15.0204 21.0559 16.6941 22.7296 18.7496 22.7296C20.8059 22.7296 22.4788 21.0559 22.4788 18.9996C22.4788 16.9441 20.8059 15.2712 18.7496 15.2712ZM24.9621 9.19115H12.5379C10.5548 9.19115 8.94115 10.8048 8.94115 12.7879V25.2121C8.94115 27.1952 10.5548 28.8088 12.5379 28.8088H24.9621C26.9452 28.8088 28.5588 27.1952 28.5588 25.2121V12.7879C28.5588 10.8048 26.9452 9.19115 24.9621 9.19115ZM18.7496 25.4582C15.1891 25.4582 12.2918 22.5609 12.2918 18.9996C12.2918 15.4391 15.1891 12.5418 18.7496 12.5418C22.3109 12.5418 25.2082 15.4391 25.2082 18.9996C25.2082 22.5609 22.3109 25.4582 18.7496 25.4582ZM25.4155 13.8773C24.5729 13.8773 23.8875 13.1919 23.8875 12.3493C23.8875 11.5067 24.5729 10.8212 25.4155 10.8212C26.2581 10.8212 26.9436 11.5067 26.9436 12.3493C26.9436 13.1919 26.2581 13.8773 25.4155 13.8773ZM18.7496 15.2712C16.6941 15.2712 15.0204 16.9441 15.0204 18.9996C15.0204 21.0559 16.6941 22.7296 18.7496 22.7296C20.8059 22.7296 22.4788 21.0559 22.4788 18.9996C22.4788 16.9441 20.8059 15.2712 18.7496 15.2712ZM0 0.25V37.75H37.5V0.25H0ZM31.2874 25.2121C31.2874 28.7002 28.4502 31.5374 24.9621 31.5374H12.5379C9.04977 31.5374 6.21256 28.7002 6.21256 25.2121V12.7879C6.21256 9.29977 9.04977 6.46256 12.5379 6.46256H24.9621C28.4502 6.46256 31.2874 9.29977 31.2874 12.7879V25.2121ZM24.9621 9.19115H12.5379C10.5548 9.19115 8.94115 10.8048 8.94115 12.7879V25.2121C8.94115 27.1952 10.5548 28.8088 12.5379 28.8088H24.9621C26.9452 28.8088 28.5588 27.1952 28.5588 25.2121V12.7879C28.5588 10.8048 26.9452 9.19115 24.9621 9.19115ZM18.7496 25.4582C15.1891 25.4582 12.2918 22.5609 12.2918 18.9996C12.2918 15.4391 15.1891 12.5418 18.7496 12.5418C22.3109 12.5418 25.2082 15.4391 25.2082 18.9996C25.2082 22.5609 22.3109 25.4582 18.7496 25.4582ZM25.4155 13.8773C24.5729 13.8773 23.8875 13.1919 23.8875 12.3493C23.8875 11.5067 24.5729 10.8212 25.4155 10.8212C26.2581 10.8212 26.9436 11.5067 26.9436 12.3493C26.9436 13.1919 26.2581 13.8773 25.4155 13.8773ZM18.7496 15.2712C16.6941 15.2712 15.0204 16.9441 15.0204 18.9996C15.0204 21.0559 16.6941 22.7296 18.7496 22.7296C20.8059 22.7296 22.4788 21.0559 22.4788 18.9996C22.4788 16.9441 20.8059 15.2712 18.7496 15.2712ZM18.7496 15.2712C16.6941 15.2712 15.0204 16.9441 15.0204 18.9996C15.0204 21.0559 16.6941 22.7296 18.7496 22.7296C20.8059 22.7296 22.4788 21.0559 22.4788 18.9996C22.4788 16.9441 20.8059 15.2712 18.7496 15.2712ZM18.7496 15.2712C16.6941 15.2712 15.0204 16.9441 15.0204 18.9996C15.0204 21.0559 16.6941 22.7296 18.7496 22.7296C20.8059 22.7296 22.4788 21.0559 22.4788 18.9996C22.4788 16.9441 20.8059 15.2712 18.7496 15.2712ZM24.9621 9.19115H12.5379C10.5548 9.19115 8.94115 10.8048 8.94115 12.7879V25.2121C8.94115 27.1952 10.5548 28.8088 12.5379 28.8088H24.9621C26.9452 28.8088 28.5588 27.1952 28.5588 25.2121V12.7879C28.5588 10.8048 26.9452 9.19115 24.9621 9.19115ZM18.7496 25.4582C15.1891 25.4582 12.2918 22.5609 12.2918 18.9996C12.2918 15.4391 15.1891 12.5418 18.7496 12.5418C22.3109 12.5418 25.2082 15.4391 25.2082 18.9996C25.2082 22.5609 22.3109 25.4582 18.7496 25.4582ZM25.4155 13.8773C24.5729 13.8773 23.8875 13.1919 23.8875 12.3493C23.8875 11.5067 24.5729 10.8212 25.4155 10.8212C26.2581 10.8212 26.9436 11.5067 26.9436 12.3493C26.9436 13.1919 26.2581 13.8773 25.4155 13.8773ZM18.7496 15.2712C16.6941 15.2712 15.0204 16.9441 15.0204 18.9996C15.0204 21.0559 16.6941 22.7296 18.7496 22.7296C20.8059 22.7296 22.4788 21.0559 22.4788 18.9996C22.4788 16.9441 20.8059 15.2712 18.7496 15.2712ZM18.7496 15.2712C16.6941 15.2712 15.0204 16.9441 15.0204 18.9996C15.0204 21.0559 16.6941 22.7296 18.7496 22.7296C20.8059 22.7296 22.4788 21.0559 22.4788 18.9996C22.4788 16.9441 20.8059 15.2712 18.7496 15.2712ZM18.7496 15.2712C16.6941 15.2712 15.0204 16.9441 15.0204 18.9996C15.0204 21.0559 16.6941 22.7296 18.7496 22.7296C20.8059 22.7296 22.4788 21.0559 22.4788 18.9996C22.4788 16.9441 20.8059 15.2712 18.7496 15.2712ZM24.9621 9.19115H12.5379C10.5548 9.19115 8.94115 10.8048 8.94115 12.7879V25.2121C8.94115 27.1952 10.5548 28.8088 12.5379 28.8088H24.9621C26.9452 28.8088 28.5588 27.1952 28.5588 25.2121V12.7879C28.5588 10.8048 26.9452 9.19115 24.9621 9.19115ZM18.7496 25.4582C15.1891 25.4582 12.2918 22.5609 12.2918 18.9996C12.2918 15.4391 15.1891 12.5418 18.7496 12.5418C22.3109 12.5418 25.2082 15.4391 25.2082 18.9996C25.2082 22.5609 22.3109 25.4582 18.7496 25.4582ZM25.4155 13.8773C24.5729 13.8773 23.8875 13.1919 23.8875 12.3493C23.8875 11.5067 24.5729 10.8212 25.4155 10.8212C26.2581 10.8212 26.9436 11.5067 26.9436 12.3493C26.9436 13.1919 26.2581 13.8773 25.4155 13.8773ZM18.7496 15.2712C16.6941 15.2712 15.0204 16.9441 15.0204 18.9996C15.0204 21.0559 16.6941 22.7296 18.7496 22.7296C20.8059 22.7296 22.4788 21.0559 22.4788 18.9996C22.4788 16.9441 20.8059 15.2712 18.7496 15.2712Z" fill="#6B6A69"/>
</g>
<defs>
<clipPath id="clip0">
<rect width="37.5" height="37.5" fill="white" transform="translate(0 0.25)"/>
</clipPath>
</defs>
</svg>
