<svg width="38" height="38" viewBox="0 0 38 38" fill="none" xmlns="http://www.w3.org/2000/svg">
<path fill-rule="evenodd" clip-rule="evenodd" d="M0 0.25H37.5V37.75H0V0.25ZM13.5975 30.5466C10.424 30.5466 7.46356 29.6306 4.96785 28.0478L4.96628 28.0474C9.84614 28.776 13.2838 25.6706 13.2838 25.6706C8.93647 25.3325 8.07749 21.7145 8.07749 21.7145C9.61351 21.9746 10.5763 21.6099 10.5763 21.6099C5.68323 20.465 6.09943 15.9874 6.09943 15.9874C7.23259 16.6644 8.54603 16.7168 8.54603 16.7168C4.2253 12.9162 6.93266 9.22015 6.93266 9.22015C11.4626 14.706 18.1214 15.0793 18.5587 15.0972C18.4627 14.6849 18.4119 14.2554 18.4119 13.8142C18.4119 10.6876 20.9474 8.15275 24.0765 8.15275C25.7078 8.15275 27.1774 8.84148 28.2113 9.94493C28.4979 9.86453 28.7759 9.7778 29.0414 9.68959C30.6454 9.15466 31.791 8.54319 31.791 8.54319C31.5145 10.1994 29.4725 11.5895 29.3265 11.6871C29.321 11.6909 29.3179 11.6925 29.3179 11.6925C29.3195 11.6925 29.3212 11.6923 29.323 11.6921C29.3247 11.6919 29.3265 11.6918 29.328 11.6918C30.9132 11.5332 32.5328 10.8601 32.5328 10.8601C32.0439 11.8878 30.0495 13.4863 29.727 13.7401C29.7356 13.9604 29.7403 14.1813 29.7403 14.4039C29.7403 23.3186 22.5131 30.5466 13.5975 30.5466Z" fill="#6B6A69"/>
</svg>
