<svg width="38" height="38" viewBox="0 0 38 38" fill="none" xmlns="http://www.w3.org/2000/svg">
<path fill-rule="evenodd" clip-rule="evenodd" d="M0 0.25H37.5V37.75H0V0.25ZM13.2525 17.8526C11.7523 15.9741 10.6133 13.8816 9.71462 11.6622C9.39839 10.883 8.8865 10.5663 8.13581 10.5256C8.05755 10.5214 3.35297 10.4234 3.10002 10.5218C2.69427 10.6797 2.57537 11.1384 2.70283 11.6186C2.74118 11.7621 4.16809 14.7984 4.24009 14.9426C5.64889 17.7641 7.19199 20.5051 9.14561 22.9987C10.3755 24.5686 11.7952 25.9148 13.5731 26.8669C15.6708 27.9908 17.9226 28.2498 20.2463 28.1237C21.0512 28.0794 21.5085 27.6214 21.5595 26.9029C21.5693 26.7655 21.7788 25.1566 22.0213 24.5439C22.3051 23.8305 22.9013 23.7277 23.5087 24.1909C23.7662 24.3869 24.005 24.6114 24.2287 24.8457C24.4946 25.124 24.7554 25.4074 25.0162 25.6907C25.4836 26.1986 25.951 26.7064 26.4473 27.1845C27.1427 27.8535 28.0061 28.1951 28.9911 28.1996C29.0185 28.1997 29.1188 28.202 29.2725 28.2055C30.1804 28.2264 32.9529 28.2901 33.5943 28.1996C34.7866 28.0306 35.1808 27.0816 34.5426 26.074C34.038 25.2774 33.4487 24.5207 32.812 23.8231C32.2955 23.2579 31.7469 22.7225 31.1982 22.187C30.8161 21.8141 30.4339 21.4411 30.0625 21.0579C29.4941 20.4716 29.4671 20.0767 29.8568 19.3724C29.9657 19.1765 30.0828 18.9835 30.2157 18.8026C30.569 18.3209 30.9253 17.8413 31.2815 17.3617C31.9757 16.4269 32.6699 15.4922 33.3428 14.5425C33.9772 13.6467 34.5696 12.715 34.8166 11.6188C34.9225 11.151 34.743 10.7824 34.291 10.6382C34.0125 10.5496 33.7039 10.5218 33.4089 10.5203C31.745 10.515 30.0812 10.5165 28.4174 10.5203C27.5323 10.5225 27.2822 10.7012 26.9556 11.5241C26.3242 13.1188 25.5907 14.6654 24.6086 16.0747C24.0681 16.8495 23.4922 17.6124 22.839 18.2903C22.3246 18.8241 21.8216 18.6386 21.6587 17.8999C21.5422 17.3698 21.5025 16.8119 21.5092 16.2676C21.5186 15.4482 21.5457 14.6288 21.5729 13.8093C21.5917 13.2418 21.6105 12.6743 21.6234 12.1066C21.6309 11.7837 21.6031 11.4556 21.5491 11.1365C21.4446 10.5179 21.1053 10.0734 20.4716 9.93524C19.9858 9.82934 19.4895 9.7896 18.9962 9.78507C18.6837 9.78197 18.3709 9.77612 18.058 9.77026C17.1588 9.75344 16.2589 9.7366 15.3615 9.78507C14.6152 9.8249 13.927 9.92553 13.4329 10.557C13.1956 10.8603 13.2299 11.1643 13.5993 11.2312C14.7954 11.4467 15.0845 12.1606 15.1287 12.9738C15.197 14.2434 15.2255 15.0764 15.2007 16.3476C15.1917 16.834 15.0394 17.7729 14.8734 18.2362C14.7165 18.6777 14.3524 18.7708 13.9665 18.5058C13.7022 18.3248 13.4514 18.1026 13.2525 17.8526Z" fill="#6B6A69"/>
</svg>
